<svg xmlns="http://www.w3.org/2000/svg" xmlns:xlink="http://www.w3.org/1999/xlink" width="136px" height="73px" viewBox="0 0 136 73"><title>logo_gray</title><g id="logo_gray" stroke="none" stroke-width="1" fill="none" fill-rule="evenodd"><g id="logo-dr-agile-negative-vector"><path d="M27.3737628,9.7577198 C25.1311025,7.51566512 22.0319422,6.1292242 18.6091722,6.1292242 C18.5962536,6.1292242 18.5833351,6.12986607 18.5697706,6.12986607 C15.1424791,6.14013601 12.0426729,7.54069808 9.80582585,9.79687392 C7.58835664,12.0331518 6.21834434,15.1096385 6.21834434,18.5064187 L7.76921634,18.5064187 C7.76921634,15.5416175 8.97516304,12.8573139 10.9245723,10.909236 C12.879795,8.95666505 15.5823558,7.74545486 18.5697706,7.73518493 C18.5833351,7.73518493 18.5962536,7.73454306 18.6091722,7.73454306 C21.5920655,7.73454306 24.2939804,8.93227396 26.2543704,10.8700819 C28.2270331,12.8207272 29.4484821,15.5217195 29.4484821,18.5064187 L31,18.5064187 C31,15.0903823 29.6138395,11.997207 27.3737628,9.7577198 M18.6091722,9.26989799 C18.5962536,9.26989799 18.5833351,9.26989799 18.5697706,9.26989799 C16.0106057,9.28016793 13.6956014,10.3193567 12.0213573,11.9927139 L13.1181422,13.0826105 C14.5114079,11.6884671 16.4388557,10.8219416 18.5697706,10.8116716 C18.5833351,10.8110298 18.5962536,10.8110298 18.6091722,10.8110298 C20.7362115,10.8110298 22.6623674,11.6634342 24.0608005,13.0440983 C25.4727981,14.4369579 26.3467381,16.3670634 26.3467381,18.5 C26.3467381,20.6329366 25.4727981,22.563684 24.0608005,23.9565436 L25.1575855,25.0464402 C26.8499156,23.3743668 27.8976101,21.058497 27.8976101,18.5 C27.8976101,15.941503 26.8499156,13.6256332 25.1575855,11.9535598 C23.4781739,10.2949657 21.1644615,9.26989799 18.6091722,9.26989799 M22.9717667,14.1327111 C21.8536662,13.0319027 20.3157127,12.3515197 18.6169233,12.3515197 C18.6040048,12.3515197 18.5910862,12.3521615 18.5781676,12.3521615 L18.5781676,13.8932933 C18.5910862,13.8932933 18.6040048,13.8926514 18.6169233,13.8926514 C19.8874628,13.8926514 21.0378597,14.4003712 21.8749818,15.2226077 C22.7256683,16.0576816 23.2527452,17.2175422 23.2527452,18.4993581 C23.2527452,19.7811741 22.7256683,20.9403928 21.8749818,21.7761085 C21.0378597,22.5977031 19.8874628,23.1054229 18.6169233,23.1054229 C18.6040048,23.1054229 18.5910862,23.1054229 18.5781676,23.1047811 L18.5781676,24.6465547 C18.5910862,24.6465547 18.6040048,24.6471966 18.6169233,24.6471966 C20.3157127,24.6471966 21.8536662,23.9668135 22.9717667,22.8653633 C24.1027858,21.7517174 24.8036172,20.2067344 24.8036172,18.4993581 C24.8036172,16.7913399 24.1027858,15.2469988 22.9717667,14.1327111 M7.63421749,7.63312747 C4.8425187,10.417563 3.11660034,14.2585178 3.11660034,18.5 C3.11660034,22.7414822 4.8425187,26.5817952 7.63421749,29.3668725 L8.73164837,28.2769759 C6.2196362,25.7711123 4.66747234,22.3159219 4.66747234,18.5 C4.66747234,14.6840781 6.2196362,11.2288877 8.73164837,8.72366595 C11.2475361,6.21330928 14.7258559,4.6567726 18.5697706,4.64650267 C18.5833351,4.6458608 18.5962536,4.6458608 18.6091722,4.6458608 C22.4485654,4.6458608 25.9262392,6.18827632 28.4479403,8.68451183 L29.5440793,7.59461522 C26.7420457,4.81980779 22.8774613,3.10472903 18.6091722,3.10472903 C18.5962536,3.10472903 18.5833351,3.10472903 18.5697706,3.10472903 C14.29696,3.11564083 10.4317296,4.84419888 7.63421749,7.63312747 M18.6091722,20.0411318 C18.5962536,20.0411318 18.5833351,20.0404899 18.5697706,20.0404899 C18.147334,20.0295781 17.7668827,19.8517799 17.4936553,19.5699986 L16.3962244,20.6598952 C16.9504303,21.2208903 17.719084,21.5713517 18.5697706,21.5822635 C18.5833351,21.5822635 18.5962536,21.5822635 18.6091722,21.5822635 C19.4559832,21.5822635 20.2233451,21.2452814 20.7827183,20.6990493 C21.355656,20.139338 21.7109162,19.3607487 21.7109162,18.5 C21.7109162,17.6386094 21.355656,16.8600201 20.7827183,16.3009507 L19.6859334,17.3914891 C19.9778926,17.6713448 20.1600442,18.0641697 20.1600442,18.5 C20.1600442,18.9358303 19.9778926,19.3286552 19.6859334,19.6091527 C19.4068927,19.876171 19.0277332,20.0411318 18.6091722,20.0411318 M1.55926906,18.5 C1.55926906,23.1708938 3.46087971,27.4001804 6.53614069,30.4663972 C9.61592316,33.5364652 13.8732315,35.4396121 18.5781676,35.4505239 L18.5781676,37 C13.4423978,36.9897301 8.79494926,34.9126362 5.43289646,31.5620706 C2.07536516,28.2159982 0,23.5983797 0,18.5 C0,13.4009784 2.07536516,8.7840018 5.43289646,5.43792936 C8.79494926,2.08672195 13.4423978,0.0102699327 18.5781676,0 L18.5781676,1.54947609 C13.8732315,1.5603879 9.61592316,3.4635348 6.53614069,6.53424467 C3.46087971,9.59917771 1.55926906,13.8291062 1.55926906,18.5" id="Fill-2" fill="#FF9300"></path><path d="M53.0828664,47.7088034 C53.0771133,46.5788233 52.0946584,45.5648881 51.0029007,45.56229 C49.909872,45.5597018 48.9267817,46.5697471 48.9115302,47.7113966 C48.8962786,48.8452665 49.8679302,49.8157657 51.012433,49.8099572 C52.198242,49.8047447 53.0891874,48.9003716 53.0828664,47.7088034 M101.379483,29.3704513 C101.373729,28.2411195 100.391275,27.2271844 99.2995168,27.2245834 C98.2071236,27.2213497 97.2233978,28.2320434 97.2081462,29.3736928 C97.1928947,30.5069144 98.1645463,31.4774137 99.309049,31.472248 C100.494858,31.4670409 101.385804,30.5626679 101.379483,29.3704513 M134,55.6277404 C121.692624,54.9995414 109.384613,54.8789584 97.0696112,55.6303335 C109.375716,56.3739292 121.68754,56.2714984 134,55.6277404 M20.6427582,55.732116 C23.9409087,55.8280639 27.2390592,55.9227151 30.5372097,56.0173663 C34.2439749,56.1236869 37.9520112,56.0808993 41.659412,56.1360045 C47.3978125,56.2209313 53.138755,56.226766 58.880333,56.0834925 C63.5250694,55.9680958 68.1755252,55.9894896 72.822168,55.8928935 C74.4076951,55.8591821 75.9817835,55.6432995 77.5743008,55.6588586 C77.4554657,55.5544829 77.3366306,55.5279028 77.2177956,55.524013 C74.1223638,55.4267686 71.0275674,55.3321173 67.9327711,55.2381144 C64.2520606,55.1279041 60.5688081,55.1745814 56.8868266,55.1220694 C51.3517802,55.042329 45.8141919,55.0475153 40.2753326,55.169395 C35.375768,55.2763639 30.4723905,55.3022957 25.5709195,55.3625872 C23.8258865,55.383981 22.0916567,55.6108847 20.351072,55.6945149 C20.4483007,55.7074808 20.544894,55.7288746 20.6427582,55.732116 M101.239007,33.3419133 C101.252988,32.7227905 101.003879,32.5075562 100.430039,32.5270051 C99.7704088,32.5496955 99.1069658,32.5646063 98.4492422,32.5218187 C97.7368671,32.4757897 97.4617035,32.7253837 97.4744131,33.4910214 C97.5157194,35.8754545 97.5068227,38.2605359 97.4826744,40.644969 C97.4699647,41.875435 97.6377319,43.0754311 97.967547,44.2469022 C98.7218639,46.9250134 100.424955,48.7169038 102.962434,49.7126867 C103.423794,49.8935613 103.68879,49.8831885 103.674173,49.2724936 C103.653838,48.3921075 103.657651,47.5097765 103.672267,46.6287421 C103.679257,46.2196672 103.4848,45.9681283 103.193114,45.7185343 C102.253236,44.9107574 101.615848,43.8955257 101.373094,42.6579284 C101.045821,40.9885659 101.332423,39.2965131 101.229475,37.9059179 C101.229475,36.1931196 101.207869,34.7668681 101.239007,33.3419133 M40.9000112,49.0442934 C40.8930209,49.6070144 41.0900203,49.8475322 41.6524217,49.8287317 C42.4645674,49.8021515 43.2773486,49.811876 44.0901298,49.8216004 C44.5451348,49.8274351 44.7338729,49.5895104 44.7421341,49.1558003 C44.747218,48.8711983 44.7503954,48.5865963 44.7516663,48.301346 C44.7656469,45.2699134 44.7484889,42.2384808 44.8069533,39.2089931 C44.8349145,37.7373609 45.809108,36.7182394 47.2217841,36.4252096 C48.2569839,36.2106236 49.2979031,36.3195373 50.3362803,36.3052748 C50.854198,36.2981436 51.0740747,36.110786 51.0569167,35.5733485 C51.0321329,34.8232699 51.02832,34.0699498 51.0588231,33.3198712 C51.0823359,32.7513155 50.8592818,32.5056113 50.3070482,32.5308949 C49.3951318,32.5730341 48.4832154,32.6190631 47.5706636,32.6339739 C43.8378435,32.6962104 40.9139918,35.6945799 40.9070015,39.4832223 C40.9038241,40.986621 40.906366,42.4893714 40.9070015,43.9921218 C40.907637,45.6757468 40.9209821,47.3606684 40.9000112,49.0442934 M108.099669,27.8041679 C108.106023,27.2369088 107.903305,27.0048188 107.343445,27.0307507 C106.710505,27.059924 106.071211,27.0780763 105.440177,27.0255643 C104.696664,26.9633279 104.486319,27.268027 104.492039,28.0044914 C104.521906,31.6569917 104.526355,35.3101403 104.499029,38.9626406 C104.475516,42.0932625 105.564732,44.7246964 107.795908,46.8582389 C109.299458,48.2961597 111.097872,49.1467242 113.125059,49.5019904 C113.761811,49.6134973 114.084636,49.3943733 114.038881,48.6780061 C113.998846,48.0595316 113.995669,47.4326292 114.040788,46.8141547 C114.092262,46.1159398 113.829172,45.8267998 113.145394,45.6712087 C110.555806,45.0857973 108.581999,42.7791598 108.228036,40.0731718 C107.940798,37.8780412 108.192449,35.6744827 108.092043,33.8631434 C108.092043,31.5863274 108.079333,29.6945994 108.099669,27.8041679 M77.9130126,32.0731978 C77.9968962,29.266724 76.3910337,27.5869887 73.8465647,27.1046564 C72.0869156,26.7714322 70.517911,27.199956 69.4712725,28.8822844 C68.8319778,29.9098337 68.1310414,30.897837 67.4606081,31.9052891 C63.6502593,37.6297438 59.840546,43.3535501 56.036552,49.0825428 C55.9158104,49.2640657 55.6635242,49.4468852 55.7817238,49.6899963 C55.9024653,49.9376454 56.1928805,49.8280834 56.4076734,49.82938 C57.4244442,49.8365112 58.4431215,49.7911305 59.4573505,49.8365112 C60.1169806,49.8663328 60.5249599,49.6348911 60.8941748,49.0689286 C63.8548845,44.5412286 66.8454618,40.0336257 69.8265068,35.5201882 C70.6634364,34.252121 71.5022723,32.9853504 72.3360244,31.7140418 C72.5635269,31.3672033 72.8444099,31.1098298 73.277173,31.2070742 C73.7684004,31.3179328 73.8630872,31.7283043 73.8821516,32.1665525 C73.8935903,32.4252226 73.8967677,32.6851893 73.8967677,32.9445078 C73.8980387,35.4333165 73.8974032,37.9227736 73.8974032,40.4122307 C73.8974032,43.2388017 73.9101128,46.0653727 73.8885065,48.8919438 C73.8834226,49.5713581 74.0689833,49.903934 74.7997873,49.8455874 C75.4816593,49.7911305 76.171157,49.8371595 76.8574774,49.8326214 C77.8717063,49.8267868 77.8933127,49.8066896 77.8939482,48.7985891 C77.8971256,45.9460863 77.8952191,43.0935834 77.8952191,40.2404322 C77.8952191,37.5182368 77.831671,34.7934483 77.9130126,32.0731978 M131.691295,49.8183589 C132.650237,49.8105794 132.742382,49.7023139 132.751914,48.7499669 C132.756998,48.2579102 132.755091,47.7658534 132.752549,47.2731484 C132.74683,46.1879007 132.737298,46.1755831 131.702098,46.1749348 C128.323241,46.1729899 124.94502,46.1788246 121.566799,46.171045 C120.115994,46.1671552 118.942259,45.4423602 118.597828,44.1840174 C118.08563,42.3175729 118.004288,40.4089892 118.500599,38.5140197 C118.850114,37.1785297 119.782366,36.3921465 121.078113,36.3435243 C123.640376,36.2475765 126.208358,36.2877708 128.773162,36.3234271 C129.47537,36.3337998 129.94372,36.8154839 130.094329,37.5234232 C130.235406,38.188575 129.921478,38.6793352 129.385767,39.0287668 C129.04769,39.2491874 128.653692,39.2180692 128.274309,39.2187175 C126.292877,39.2226073 124.311445,39.2342766 122.330012,39.215476 C121.68754,39.2096414 121.391406,39.4436763 121.43716,40.1276287 C121.475925,40.6955361 121.479102,41.2699264 121.43716,41.8365372 C121.382509,42.5671669 121.639879,42.8504723 122.385299,42.8355615 C124.391515,42.7960155 126.398367,42.8174092 128.405218,42.8258371 C128.890726,42.827782 129.365431,42.7785115 129.841407,42.6858051 C132.123422,42.2423706 133.85511,40.0913241 133.806814,37.7490303 C133.754069,35.1688117 131.964552,32.9918334 129.524937,32.8064207 C126.51466,32.5769239 123.481505,32.4394851 120.476947,32.8284628 C117.594402,33.2025296 115.629492,34.8226216 114.831327,37.7496785 C114.255581,39.8618273 114.239694,41.9992595 114.685166,44.1295606 C115.403896,47.5713646 117.293184,49.2750868 120.725421,49.7055554 C122.70304,49.9532045 124.684472,49.7347287 126.270635,49.8222487 C128.338493,49.8222487 130.015529,49.8319731 131.691295,49.8183589 M20.0123602,48.7337595 C20.0129957,49.8300283 20.0161731,49.8326214 21.1219114,49.8332697 C23.7388255,49.8352146 26.355104,49.8306765 28.972018,49.8359707 C29.8102185,49.8378078 30.6433351,49.8144691 31.4764517,49.6809201 C34.9639758,49.1214406 37.4366355,47.2835211 38.5423738,43.7853153 C39.597909,40.4472387 39.6214219,37.0521119 38.7552602,33.6777307 C37.8611373,30.1963806 35.6305962,28.0745074 32.1608656,27.344526 C31.2400525,27.1513337 30.3116136,27.0320473 29.3660167,27.0370711 C26.6728449,27.0521444 23.9803085,27.04242 21.2877722,27.0476064 C20.0129957,27.0501996 20.0129957,27.0553859 20.0117248,28.3169702 C20.0110893,28.7837434 20.0098183,29.2498683 20.0123602,29.7166415 C20.0206215,31.2816283 19.8865348,31.1603969 21.3919912,31.1623418 C24.3139365,31.1662316 27.2352463,31.1591003 30.1571915,31.164935 C32.583461,31.169473 34.1416624,32.3163089 34.8330666,34.6994454 C35.5111256,37.0333113 35.4431291,39.4106132 34.9684242,41.7697627 C34.536932,43.9117331 33.2697814,45.5434944 30.6592222,45.759377 C28.727993,45.9195061 26.8031187,45.8099441 24.8750669,45.857918 C23.7547125,45.8851464 23.7528061,45.8611595 23.7528061,44.7162685 C23.7515351,41.1396189 23.73819,37.5629693 23.7636092,33.9863196 C23.7686931,33.3056087 23.5507228,33.05018 22.8847379,33.0949125 C22.2270143,33.1396449 21.5610294,33.1448313 20.9045767,33.0942642 C20.1877532,33.039159 19.9913893,33.3451548 20.0002861,34.0388316 C20.0307892,36.5004119 20.0117248,38.9626406 20.0117248,41.4255175 C20.0117248,43.861166 20.0104538,46.2974627 20.0123602,48.7337595 M87.5894939,43.059872 C89.6122324,43.0728379 90.8825605,41.6621456 90.9270442,39.3548597 C90.9651731,37.3146719 89.5505907,35.7950658 87.6085583,35.7911705 C85.5661198,35.7879345 84.1464535,37.2310417 84.1521556,39.3049409 C84.1578922,41.4845124 85.5877262,43.0475544 87.5894939,43.059872 M83.0737603,44.8329618 C80.6646488,43.1097908 79.8785578,40.7558276 80.3221241,37.9837134 C80.7720452,35.1688117 83.2790209,32.9620118 86.1405954,32.6352705 C87.7610739,32.4498579 89.3351623,32.568496 90.8437961,33.2174404 C91.2536819,33.393777 91.5066036,33.3017189 91.753806,32.9665499 C91.9666924,32.6774098 92.2335948,32.4284641 92.4325006,32.1308962 C92.8430218,31.5143666 93.2001626,31.6621781 93.6221225,32.1295996 C94.0688662,32.6242495 94.546113,33.0955608 95.0487791,33.5299192 C95.3785942,33.8151695 95.435152,34.0459629 95.1091499,34.3474206 C95.034163,34.4174365 94.9693439,34.4978253 94.895628,34.5691378 C94.233456,35.2083578 93.9989632,35.7574646 94.4101199,36.8213185 C95.8170766,40.4556665 94.3618233,44.9943876 90.027202,46.002488 C88.9945441,46.2423576 87.9580733,46.2067013 86.9279573,46.0517585 C86.2441789,45.9493277 85.7440547,46.3071872 85.2585467,46.6553222 C84.8607351,46.9392759 85.0297732,47.4514298 85.5419715,47.5519157 C86.1196245,47.6660158 86.7036322,47.6057243 87.2806497,47.4851412 C89.0625407,47.1136676 90.8450671,46.9781737 92.6364902,47.4384639 C95.0487791,48.058235 95.9975534,49.9084721 95.8189831,52.5463889 C95.6880738,54.4815528 94.5925032,55.7755519 92.9713891,56.6727937 C91.4665683,57.5039093 89.8594348,57.9019631 88.1538017,57.9272467 C85.8171351,57.9616064 83.4798331,57.8351886 81.1444375,57.9972626 C80.7758581,58.0225462 80.5636072,57.8747347 80.5655136,57.468253 C80.5693265,56.5606385 80.5667846,55.6543205 80.5648781,54.7467059 C80.5642427,54.1100792 81.0243315,54.164536 81.4265915,54.1612946 C83.5853231,54.142494 85.7446902,54.1178587 87.9040573,54.1256383 C88.8312253,54.1288798 89.7285256,54.0277456 90.5768938,53.63034 C91.4633909,53.2147822 91.8345122,52.6462266 91.669287,51.900686 C91.4837263,51.070867 90.8279091,50.8556327 90.1161695,50.7720025 C88.7162031,50.6079836 87.3270399,50.8206247 85.943596,50.9807538 C84.9891024,51.0909642 84.0695602,50.9924232 83.15256,50.7771889 C81.9953477,50.5062011 81.1870148,49.8378078 80.9251963,48.6047486 C80.6602004,47.3464059 81.1743052,46.3791481 82.0563539,45.5720194 C82.3366014,45.3159424 82.6715003,45.1221019 83.0737603,44.8329618" id="Fill-4" fill="#555555"></path><path d="M133.90636,65.0237125 L133.868434,65.4918224 C134.196911,65.0967554 134.529245,64.8998571 134.864793,64.8998571 C135.210626,64.8998571 135.487679,65.0376859 135.695307,65.3139787 C135.898436,65.5909067 136,65.9675541 136,66.4451913 C136,66.7043349 135.984573,67.0123855 135.955003,67.3712486 L135.717805,70.0967025 L134.891149,70.0967025 L135.146988,67.1127402 C135.15663,67.0015879 135.163701,66.9031387 135.167558,66.8167575 C135.171415,66.7310115 135.173343,66.6535225 135.173343,66.5855608 C135.173343,66.1257079 134.999784,65.8957815 134.653951,65.8957815 C134.44118,65.8957815 134.258621,65.9897846 134.105632,66.1758852 C133.979641,66.3232414 133.887718,66.5023554 133.827294,66.7144974 C133.794511,66.8224739 133.76687,66.9539512 133.744371,67.1101995 C133.721873,67.2664479 133.701946,67.4468322 133.683947,67.6519875 L133.473747,70.0967025 L132.643234,70.0967025 L133.07906,65.0237125 L133.90636,65.0237125 Z M131.083128,67.4519134 C131.083128,66.9641137 130.984135,66.5779389 130.786149,66.2946594 C130.588162,65.9999471 130.329109,65.8532261 130.008345,65.8532261 C129.674726,65.8532261 129.398959,66.015826 129.181046,66.3429312 C128.963775,66.6732123 128.854497,67.0879691 128.854497,67.5872016 C128.854497,68.0896099 128.957347,68.493569 129.162404,68.7984439 C129.367462,69.1115757 129.634229,69.2678241 129.959492,69.2678241 C130.284755,69.2678241 130.55345,69.0969671 130.76365,68.7558884 C130.976421,68.4186207 131.083128,67.9835389 131.083128,67.4519134 L131.083128,67.4519134 Z M131.921355,67.5116181 C131.921355,68.2871434 131.733654,68.9388133 131.357609,69.4666279 C130.984135,69.9944424 130.523238,70.2580321 129.974276,70.2580321 C129.400245,70.2580321 128.932277,70.009051 128.568446,69.5091833 C128.202685,69.006775 128.020127,68.3716191 128.020127,67.6037157 C128.020127,66.8167575 128.209114,66.1631821 128.58773,65.6429895 C128.968275,65.1183507 129.444599,64.8560313 130.015416,64.8560313 C130.576592,64.8560313 131.034274,65.1043773 131.387821,65.5997989 C131.743939,66.0882337 131.921355,66.7252951 131.921355,67.5116181 L131.921355,67.5116181 Z M127.545731,62.6107553 C127.545731,62.7828825 127.50202,62.9321442 127.413955,63.0572699 C127.327175,63.1836659 127.221754,63.2459112 127.098334,63.2459112 C126.976199,63.2459112 126.869492,63.1817604 126.778856,63.0521886 C126.691433,62.9162653 126.647722,62.7600169 126.647722,62.5834436 C126.647722,62.4081406 126.690148,62.2582438 126.774999,62.136929 C126.863064,62.0111682 126.9672,61.9482877 127.087406,61.9482877 C127.210183,61.9482877 127.31689,62.0149791 127.406884,62.1477267 C127.499449,62.2766633 127.545731,62.4310062 127.545731,62.6107553 L127.545731,62.6107553 Z M127.286678,65.0237125 L126.850208,70.0967025 L126.019694,70.0967025 L126.455521,65.0237125 L127.286678,65.0237125 Z M124.994409,66.1276134 L124.652432,70.0967025 L123.821919,70.0967025 L124.163895,66.1276134 L123.693356,66.1276134 L123.78785,65.0237125 L124.257103,65.0237125 L124.460874,62.6698248 L125.291388,62.6698248 L125.088259,65.0237125 L125.855134,65.0237125 L125.760641,66.1276134 L124.994409,66.1276134 Z M122.027829,67.4150744 C122.027829,66.9660192 121.938478,66.6014397 121.757848,66.3213359 C121.577218,66.0380564 121.34452,65.8957815 121.059111,65.8957815 C120.74799,65.8957815 120.487008,66.0698142 120.276808,66.4178796 C120.066609,66.7703912 119.961187,67.2010268 119.961187,67.7104218 C119.961187,68.1563013 120.04861,68.5208807 120.224098,68.8041603 C120.399585,69.0874398 120.625213,69.2297147 120.900979,69.2297147 C121.206315,69.2297147 121.470511,69.0518711 121.69421,68.6961838 C121.917266,68.3341449 122.027829,67.906685 122.027829,67.4150744 L122.027829,67.4150744 Z M123.039616,65.0237125 L122.603789,70.0967025 L121.772633,70.0967025 L121.821487,69.5472926 C121.465368,69.9925369 121.097037,70.2154766 120.716492,70.2154766 C120.247882,70.2154766 119.865408,69.9868205 119.569715,69.5314138 C119.274021,69.0753718 119.126817,68.4846769 119.126817,67.7593289 C119.126817,66.9228286 119.295877,66.2368602 119.633996,65.702059 C119.977258,65.1672577 120.417584,64.8998571 120.95369,64.8998571 C121.206315,64.8998571 121.421657,64.9582914 121.599716,65.0770656 C121.780347,65.1958397 121.964834,65.4003599 122.152535,65.6912613 L122.209102,65.0237125 L123.039616,65.0237125 Z M114.312152,65.0237125 L114.274226,65.4975388 C114.555135,65.0948499 114.879112,64.8941407 115.248087,64.8941407 C115.4705,64.8941407 115.642131,64.9538453 115.762337,65.0719843 C115.883185,65.1831366 115.990535,65.3933732 116.085671,65.702059 C116.436647,65.1672577 116.814621,64.8998571 117.220878,64.8998571 C117.922829,64.8998571 118.273805,65.3609803 118.273805,66.2832266 C118.273805,66.3772297 118.26802,66.5080718 118.256449,66.6770232 C118.245521,66.8453395 118.229451,67.0536707 118.209524,67.3013815 L117.969112,70.0967025 L117.137955,70.0967025 L117.394437,67.1616472 C117.416936,66.8891653 117.427221,66.6878209 117.427221,66.5582491 C117.427221,66.1168158 117.272303,65.8957815 116.961825,65.8957815 C116.838405,65.8957815 116.732341,65.9218229 116.642347,65.9739057 C116.55171,66.0259885 116.475216,66.1066533 116.410934,66.2165352 C116.347296,66.325782 116.294585,66.4674218 116.252803,66.6420897 C116.211663,66.8161224 116.180165,67.0231832 116.157666,67.2639073 L115.916612,70.0967025 L115.086098,70.0967025 L115.345151,67.0860636 C115.36765,66.8129466 115.379221,66.6262108 115.379221,66.5258561 C115.379221,66.1060181 115.220446,65.8957815 114.902254,65.8957815 C114.440714,65.8957815 114.171376,66.3537289 114.093596,67.2689885 L113.849327,70.0967025 L113.018813,70.0967025 L113.45464,65.0237125 L114.312152,65.0237125 Z M111.26715,65.0237125 L111.229866,65.4600646 C111.510133,65.078971 111.793613,64.8884243 112.079022,64.8884243 C112.329718,64.8884243 112.557917,65.0199016 112.762974,65.2815858 L112.233297,66.2622664 C112.080307,66.0755306 111.927961,65.9821627 111.774329,65.9821627 C111.668907,65.9821627 111.576985,66.012015 111.496634,66.0704494 C111.416282,66.130154 111.346215,66.2235219 111.28772,66.3511883 C111.229224,66.4782194 111.18037,66.6427248 111.141158,66.8434341 C111.101947,67.0454136 111.071735,67.2855026 111.048593,67.5656063 L110.831323,70.0967025 L110.000809,70.0967025 L110.435993,65.0237125 L111.26715,65.0237125 Z M108.440703,67.4519134 C108.440703,66.9641137 108.341067,66.5779389 108.143724,66.2946594 C107.945095,65.9999471 107.686042,65.8532261 107.365278,65.8532261 C107.031659,65.8532261 106.756535,66.015826 106.538621,66.3429312 C106.320708,66.6732123 106.21143,67.0879691 106.21143,67.5872016 C106.21143,68.0896099 106.31428,68.493569 106.51998,68.7984439 C106.725037,69.1115757 106.991161,69.2678241 107.317067,69.2678241 C107.64233,69.2678241 107.911026,69.0969671 108.121226,68.7558884 C108.333996,68.4186207 108.440703,67.9835389 108.440703,67.4519134 L108.440703,67.4519134 Z M109.278288,67.5116181 C109.278288,68.2871434 109.091229,68.9388133 108.715184,69.4666279 C108.341067,69.9944424 107.880814,70.2580321 107.331209,70.2580321 C106.75782,70.2580321 106.28921,70.009051 105.926021,69.5091833 C105.559618,69.006775 105.377059,68.3716191 105.377059,67.6037157 C105.377059,66.8167575 105.566046,66.1631821 105.944663,65.6429895 C106.32585,65.1183507 106.801532,64.8560313 107.372992,64.8560313 C107.934167,64.8560313 108.39185,65.1043773 108.744754,65.5997989 C109.100872,66.0882337 109.278288,66.7252951 109.278288,67.5116181 L109.278288,67.5116181 Z M104.155716,66.1276134 L103.816954,70.0967025 L102.98644,70.0967025 L103.329059,66.1276134 L102.787168,66.1276134 L102.881019,65.0237125 L103.422267,65.0237125 L103.618325,62.756206 C103.667821,62.1528079 103.782242,61.7094691 103.960301,61.4255544 C104.137717,61.1422749 104.392271,61 104.723319,61 C104.923234,61 105.15786,61.0920976 105.425913,61.2750225 L105.335919,62.3198539 C105.180359,62.1401048 105.037654,62.0505478 104.907163,62.0505478 C104.756745,62.0505478 104.644896,62.1242259 104.572901,62.2715821 C104.505406,62.4183031 104.453981,62.6895146 104.418626,63.0845816 L104.253423,65.0237125 L105.004871,65.0237125 L104.91102,66.1276134 L104.155716,66.1276134 Z M102.366769,65.58392 L101.89623,66.25655 C101.675745,65.9732705 101.471974,65.8309956 101.28363,65.8309956 C101.156353,65.8309956 101.050289,65.8824432 100.966081,65.9847033 C100.881872,66.0869634 100.840732,66.2133594 100.840732,66.3645265 C100.840732,66.5118827 100.874801,66.6357381 100.945511,66.7360927 C101.015577,66.8402583 101.162138,66.9799926 101.385194,67.1559308 C101.703386,67.4112634 101.916157,67.6443656 102.02415,67.8565077 C102.139213,68.0642037 102.197066,68.3354152 102.197066,68.6695072 C102.197066,69.1509554 102.080717,69.536495 101.847376,69.8273964 C101.609536,70.115122 101.2997,70.2580321 100.919155,70.2580321 C100.400406,70.2580321 99.9703641,69.9226698 99.6303164,69.25131 L100.174778,68.7076166 C100.397834,69.0912507 100.635675,69.283703 100.888943,69.283703 C101.031647,69.283703 101.146711,69.2297147 101.232848,69.1217382 C101.319627,69.0143969 101.362696,68.8740274 101.362696,68.7019002 C101.362696,68.5513682 101.326056,68.4287831 101.253418,68.3354152 C101.218063,68.2890489 101.157639,68.224263 101.069573,68.1416927 C100.981508,68.0591224 100.862588,67.9606733 100.71217,67.8450749 C100.446688,67.633568 100.262201,67.4271423 100.159994,67.2264331 C100.057144,67.014291 100.005719,66.7564177 100.005719,66.4502726 C100.005719,65.9910549 100.123353,65.6105965 100.359266,65.3088975 C100.594535,65.0071984 100.894086,64.8560313 101.257275,64.8560313 C101.65839,64.8560313 102.028007,65.0986609 102.366769,65.58392 L102.366769,65.58392 Z M96.848867,65.0237125 L96.8109411,65.4918224 C97.1394183,65.0967554 97.4711095,64.8998571 97.8073004,64.8998571 C98.1531334,64.8998571 98.4301856,65.0376859 98.637814,65.3139787 C98.8402999,65.5909067 98.9418643,65.9675541 98.9418643,66.4451913 C98.9418643,66.7043349 98.9270796,67.0123855 98.8968674,67.3712486 L98.6603124,70.0967025 L97.8336557,70.0967025 L98.0888522,67.1127402 C98.0991372,67.0015879 98.1062081,66.9031387 98.1094222,66.8167575 C98.1132791,66.7310115 98.1152075,66.6535225 98.1152075,66.5855608 C98.1152075,66.1257079 97.942291,65.8957815 97.5964579,65.8957815 C97.383687,65.8957815 97.2004854,65.9897846 97.0474961,66.1758852 C96.9221477,66.3232414 96.8295827,66.5023554 96.7698011,66.7144974 C96.7370177,66.8224739 96.7093767,66.9539512 96.6868783,67.1101995 C96.6637371,67.2664479 96.6438099,67.4468322 96.6264539,67.6519875 L96.4162543,70.0967025 L95.5857406,70.0967025 L96.0209247,65.0237125 L96.848867,65.0237125 Z M93.8488615,67.4150744 C93.8488615,66.9660192 93.7588678,66.6014397 93.5782375,66.3213359 C93.3976072,66.0380564 93.1649091,65.8957815 92.8795004,65.8957815 C92.5683792,65.8957815 92.3073973,66.0698142 92.0971977,66.4178796 C91.886998,66.7703912 91.7815768,67.2010268 91.7815768,67.7104218 C91.7815768,68.1563013 91.8689993,68.5208807 92.0444871,68.8041603 C92.2199748,69.0874398 92.445602,69.2297147 92.7213685,69.2297147 C93.0267044,69.2297147 93.2909003,69.0518711 93.514599,68.6961838 C93.737655,68.3341449 93.8488615,67.906685 93.8488615,67.4150744 L93.8488615,67.4150744 Z M94.8600054,65.0237125 L94.4241786,70.0967025 L93.5930222,70.0967025 L93.6418759,69.5472926 C93.2864006,69.9925369 92.9174263,70.2154766 92.5375242,70.2154766 C92.0682711,70.2154766 91.6857977,69.9868205 91.390104,69.5314138 C91.0944103,69.0753718 90.9472063,68.4846769 90.9472063,67.7593289 C90.9472063,66.9228286 91.1162659,66.2368602 91.4543853,65.702059 C91.7976471,65.1672577 92.2379736,64.8998571 92.7740791,64.8998571 C93.0267044,64.8998571 93.2420466,64.9582914 93.4207484,65.0770656 C93.6007359,65.1958397 93.7852231,65.4003599 93.9729243,65.6912613 L94.0294918,65.0237125 L94.8600054,65.0237125 Z M89.3266762,65.0237125 L89.289393,65.4600646 C89.5696593,65.078971 89.8531395,64.8884243 90.1385482,64.8884243 C90.3892451,64.8884243 90.6174435,65.0199016 90.8231435,65.2815858 L90.2928232,66.2622664 C90.1398339,66.0755306 89.9874873,65.9821627 89.8338552,65.9821627 C89.7284339,65.9821627 89.6365117,66.012015 89.5561602,66.0704494 C89.4758086,66.130154 89.4057421,66.2235219 89.347889,66.3511883 C89.2887502,66.4782194 89.2398965,66.6427248 89.2006849,66.8434341 C89.1621162,67.0454136 89.1312612,67.2855026 89.1087628,67.5656063 L88.8908493,70.0967025 L88.0603357,70.0967025 L88.4955197,65.0237125 L89.3266762,65.0237125 Z M87.000338,62.9283332 L86.3838809,70.0967025 L85.5225123,70.0967025 L86.1389694,62.9283332 L84.752423,62.9283332 L84.8507733,61.7812417 L88.4254532,61.7812417 L88.3277457,62.9283332 L87.000338,62.9283332 Z M80.7232748,67.0269941 C80.6352095,66.2444821 80.3337305,65.8532261 79.8175521,65.8532261 C79.3290147,65.8532261 79.0108225,66.2444821 78.8623329,67.0269941 L80.7232748,67.0269941 Z M78.817336,67.9854443 C78.817336,68.358916 78.9073297,68.6656963 79.0886028,68.9064204 C79.2711616,69.1471444 79.5038596,69.2678241 79.7879827,69.2678241 C80.1755986,69.2678241 80.4738636,69.0594929 80.681492,68.6421955 L81.301806,69.133171 C81.0864638,69.5491981 80.8646935,69.8400995 80.6364951,70.00524 C80.4063683,70.1735563 80.1177455,70.2580321 79.7725552,70.2580321 C79.2242362,70.2580321 78.7858382,70.0268353 78.4605751,69.5631715 C78.1346692,69.1001429 77.9720377,68.4808659 77.9720377,67.7059758 C77.9720377,66.8936114 78.1507395,66.2152649 78.5094288,65.669666 C78.8649041,65.1272429 79.3148728,64.8560313 79.8586921,64.8560313 C80.3851555,64.8560313 80.7997695,65.1005663 81.1025341,65.5890012 C81.4110841,66.0806119 81.5653591,66.7399037 81.5653591,67.5656063 C81.5653591,67.6519875 81.5615022,67.7917218 81.5544312,67.9854443 L78.817336,67.9854443 Z M77.5844218,61 L76.8066188,70.0967025 L75.9761051,70.0967025 L76.7584078,61 L77.5844218,61 Z M75.5100661,62.6107553 C75.5100661,62.7828825 75.4663549,62.9321442 75.3782896,63.0572699 C75.2902243,63.1836659 75.184803,63.2459112 75.0626687,63.2459112 C74.9405343,63.2459112 74.8338274,63.1817604 74.7431909,63.0521886 C74.6551256,62.9162653 74.6114144,62.7600169 74.6114144,62.5834436 C74.6114144,62.4081406 74.65384,62.2582438 74.739334,62.136929 C74.8273993,62.0111682 74.9315349,61.9482877 75.051098,61.9482877 C75.1738752,61.9482877 75.2805821,62.0149791 75.3705758,62.1477267 C75.4637836,62.2766633 75.5100661,62.4310062 75.5100661,62.6107553 L75.5100661,62.6107553 Z M75.2503699,65.0237125 L74.8145431,70.0967025 L73.9833866,70.0967025 L74.4198563,65.0237125 L75.2503699,65.0237125 Z M72.3037178,67.4309533 C72.3037178,66.9711004 72.2060103,66.6014397 72.0099525,66.3213359 C71.8145375,66.0380564 71.559341,65.8957815 71.2437201,65.8957815 C70.915243,65.8957815 70.6420477,66.0685439 70.4241343,66.4134335 C70.2081493,66.7545123 70.1001568,67.1826073 70.1001568,67.7002594 C70.1001568,68.1524903 70.1933646,68.5227862 70.3791374,68.8098767 C70.5668386,69.0861695 70.8149642,69.2239983 71.1235142,69.2239983 C71.4661332,69.2239983 71.7489707,69.055682 71.9688125,68.7177791 C72.1918684,68.3767004 72.3037178,67.9479701 72.3037178,67.4309533 L72.3037178,67.4309533 Z M73.2576514,65.0237125 L72.8224674,70.1348118 C72.7948265,70.4390515 72.7639715,70.7051818 72.7299024,70.9319325 C72.6958334,71.1574128 72.6579074,71.3479596 72.614839,71.5023024 C72.5274165,71.8179749 72.3969256,72.0891865 72.2246519,72.315302 C71.888461,72.7465728 71.4526341,72.9618906 70.9165286,72.9618906 C70.3624243,72.9618906 69.9137412,72.7535595 69.5704794,72.3375324 C69.3956344,72.1292013 69.2728572,71.891653 69.2027907,71.626793 C69.1320813,71.382258 69.0973695,71.0392738 69.0973695,70.5972053 L69.9021706,70.5972053 C69.921455,71.0748425 70.006949,71.4222728 70.1567243,71.6394961 C70.3077852,71.8573546 70.5404833,71.9659662 70.8561042,71.9659662 C71.1967948,71.9659662 71.456491,71.8357593 71.6345501,71.5747102 C71.8119663,71.3142963 71.9244585,70.9008098 71.9720266,70.3336156 L72.0324509,69.6393903 C71.6821182,70.0230244 71.3131439,70.2154766 70.9274564,70.2154766 C70.4466327,70.2154766 70.0493746,69.980469 69.736325,69.5091833 C69.4232754,69.0290055 69.2664291,68.4287831 69.2664291,67.7104218 C69.2664291,66.9031387 69.448345,66.2330493 69.811534,65.702059 C70.1766515,65.1672577 70.6343339,64.8998571 71.1832957,64.8998571 C71.446206,64.8998571 71.6596197,64.9557508 71.8222513,65.0662679 C71.9996675,65.1742444 72.1841547,65.3698724 72.3744271,65.653152 L72.4271378,65.0237125 L73.2576514,65.0237125 Z M65.5226896,67.075266 L67.1612185,67.075266 L66.5376904,64.1186154 L65.5226896,67.075266 Z M65.1505012,68.1416927 L64.4440504,70.0967025 L63.5081155,70.0967025 L66.7183207,61.1886413 L68.7213242,70.0967025 L67.8233152,70.0967025 L67.4022731,68.1416927 L65.1505012,68.1416927 Z M59.9147941,67.0269941 C59.8267288,66.2444821 59.524607,65.8532261 59.0084286,65.8532261 C58.5198912,65.8532261 58.201699,66.2444821 58.0538522,67.0269941 L59.9147941,67.0269941 Z M58.0088553,67.9854443 C58.0088553,68.358916 58.098849,68.6656963 58.2794793,68.9064204 C58.462038,69.1471444 58.695379,69.2678241 58.9782164,69.2678241 C59.3671179,69.2678241 59.6647401,69.0594929 59.8730113,68.6421955 L60.4933253,69.133171 C60.2773403,69.5491981 60.0562128,69.8400995 59.8280144,70.00524 C59.5972448,70.1735563 59.3092648,70.2580321 58.9634317,70.2580321 C58.4151127,70.2580321 57.9773575,70.0268353 57.6520944,69.5631715 C57.3261885,69.1001429 57.1629142,68.4808659 57.1629142,67.7059758 C57.1629142,66.8936114 57.3422588,66.2152649 57.7003053,65.669666 C58.0564234,65.1272429 58.5063921,64.8560313 59.0495686,64.8560313 C59.576032,64.8560313 59.990646,65.1005663 60.2940534,65.5890012 C60.6019606,66.0806119 60.7562356,66.7399037 60.7562356,67.5656063 C60.7562356,67.6519875 60.7523787,67.7917218 60.7453077,67.9854443 L58.0088553,67.9854443 Z M56.7759411,61 L55.9974952,70.0967025 L55.1669816,70.0967025 L55.9492843,61 L56.7759411,61 Z M53.6107328,67.4360345 C53.6107328,66.9838035 53.5168821,66.6141428 53.3291809,66.3270523 C53.1408369,66.0399619 52.897211,65.8957815 52.5963748,65.8957815 C52.2704689,65.8957815 52.0011305,66.0685439 51.7877167,66.4134335 C51.5749458,66.7507013 51.468239,67.1864183 51.468239,67.7218547 C51.468239,68.1702747 51.5595183,68.5310432 51.7427199,68.8041603 C51.9259214,69.084264 52.163762,69.2239983 52.4568845,69.2239983 C52.7802191,69.2239983 53.0521288,69.0499656 53.2726134,68.7019002 C53.4982406,68.3538348 53.6107328,67.9314561 53.6107328,67.4360345 L53.6107328,67.4360345 Z M52.0583408,61 L51.6713677,65.4918224 C51.8892811,65.2587202 52.0789108,65.1024718 52.2389711,65.0237125 C52.4067451,64.9405071 52.588661,64.8998571 52.784076,64.8998571 C53.2648997,64.8998571 53.6621577,65.1367702 53.9758502,65.6105965 C54.2888998,66.0806119 54.4457461,66.680199 54.4457461,67.409358 C54.4457461,68.2102895 54.267687,68.8759329 53.911569,69.4069232 C53.5535224,69.9461705 53.1157672,70.2154766 52.6002316,70.2154766 C52.1187651,70.2154766 51.697723,69.9493463 51.3371052,69.418356 L51.2766809,70.0967025 L50.4461672,70.0967025 L51.2278271,61 L52.0583408,61 Z M49.9801282,62.6107553 C49.9801282,62.7828825 49.936417,62.9321442 49.8483517,63.0572699 C49.7609292,63.1836659 49.655508,63.2459112 49.5327308,63.2459112 C49.4099536,63.2459112 49.3032468,63.1817604 49.213253,63.0521886 C49.1251877,62.9162653 49.0821193,62.7600169 49.0821193,62.5834436 C49.0821193,62.4081406 49.1239021,62.2582438 49.2093961,62.136929 C49.2968186,62.0111682 49.4015971,61.9482877 49.521803,61.9482877 C49.6445801,61.9482877 49.7506442,62.0149791 49.8412807,62.1477267 C49.9338457,62.2766633 49.9801282,62.4310062 49.9801282,62.6107553 L49.9801282,62.6107553 Z M49.7210748,65.0237125 L49.2846052,70.0967025 L48.4540916,70.0967025 L48.8899184,65.0237125 L49.7210748,65.0237125 Z M47.8942019,65.58392 L47.4243061,66.25655 C47.2038214,65.9732705 46.9994071,65.8309956 46.8117058,65.8309956 C46.6837862,65.8309956 46.5777221,65.8824432 46.4941565,65.9847033 C46.4099481,66.0869634 46.3681653,66.2133594 46.3681653,66.3645265 C46.3681653,66.5118827 46.40352,66.6357381 46.4729437,66.7360927 C46.5436531,66.8402583 46.6902143,66.9799926 46.9132702,67.1559308 C47.2314623,67.4112634 47.4442333,67.6443656 47.5522257,67.8565077 C47.6672892,68.0642037 47.7251423,68.3354152 47.7251423,68.6695072 C47.7251423,69.1509554 47.6087932,69.536495 47.3754523,69.8273964 C47.1376117,70.115122 46.8277761,70.2580321 46.4472312,70.2580321 C45.9284816,70.2580321 45.4984401,69.9226698 45.1577495,69.25131 L45.7028544,68.7076166 C45.9259103,69.0912507 46.1637509,69.283703 46.417019,69.283703 C46.5597234,69.283703 46.674144,69.2297147 46.7609237,69.1217382 C46.8470605,69.0143969 46.8907718,68.8740274 46.8907718,68.7019002 C46.8907718,68.5513682 46.8541315,68.4287831 46.7814937,68.3354152 C46.7467818,68.2890489 46.6850718,68.224263 46.5976493,68.1416927 C46.509584,68.0591224 46.3906637,67.9606733 46.2402456,67.8450749 C45.9747641,67.633568 45.7902769,67.4271423 45.6880697,67.2264331 C45.5852197,67.014291 45.5337948,66.7564177 45.5337948,66.4502726 C45.5337948,65.9910549 45.6514294,65.6105965 45.8866988,65.3088975 C46.1226109,65.0071984 46.4221615,64.8560313 46.7853505,64.8560313 C47.1864655,64.8560313 47.5554398,65.0986609 47.8942019,65.58392 L47.8942019,65.58392 Z M42.3763002,65.0237125 L42.3383742,65.4918224 C42.6668514,65.0967554 42.9985426,64.8998571 43.3347335,64.8998571 C43.6805666,64.8998571 43.9569759,65.0376859 44.1652471,65.3139787 C44.3683758,65.5909067 44.4699402,65.9675541 44.4699402,66.4451913 C44.4699402,66.7043349 44.4545127,67.0123855 44.4243005,67.3712486 L44.1877456,70.0967025 L43.3610888,70.0967025 L43.6162853,67.1127402 C43.6265703,67.0015879 43.6329984,66.9031387 43.6368553,66.8167575 C43.6407122,66.7310115 43.6426406,66.6535225 43.6426406,66.5855608 C43.6426406,66.1257079 43.4697241,65.8957815 43.123891,65.8957815 C42.9111201,65.8957815 42.7279186,65.9897846 42.5749292,66.1758852 C42.4502236,66.3232414 42.3576586,66.5023554 42.2972342,66.7144974 C42.2644508,66.8224739 42.2368099,66.9539512 42.2143114,67.1101995 C42.191813,67.2664479 42.1718858,67.4468322 42.1545299,67.6519875 L41.9436874,70.0967025 L41.1131738,70.0967025 L41.5490006,65.0237125 L42.3763002,65.0237125 Z M39.5537109,67.4519134 C39.5537109,66.9641137 39.4540749,66.5779389 39.2567315,66.2946594 C39.0587453,65.9999471 38.7990491,65.8532261 38.4782857,65.8532261 C38.1453089,65.8532261 37.8695423,66.015826 37.6516289,66.3429312 C37.4337155,66.6732123 37.3244374,67.0879691 37.3244374,67.5872016 C37.3244374,68.0896099 37.4272874,68.493569 37.6323445,68.7984439 C37.8380445,69.1115757 38.103526,69.2678241 38.4294319,69.2678241 C38.7553378,69.2678241 39.0233906,69.0969671 39.2342331,68.7558884 C39.447004,68.4186207 39.5537109,67.9835389 39.5537109,67.4519134 L39.5537109,67.4519134 Z M40.3912954,67.5116181 C40.3912954,68.2871434 40.2035942,68.9388133 39.8281918,69.4666279 C39.4540749,69.9944424 38.9931784,70.2580321 38.4448594,70.2580321 C37.870828,70.2580321 37.4022177,70.009051 37.0390287,69.5091833 C36.6726256,69.006775 36.4900669,68.3716191 36.4900669,67.6037157 C36.4900669,66.8167575 36.6790537,66.1631821 37.0576702,65.6429895 C37.4382152,65.1183507 37.9145392,64.8560313 38.4859994,64.8560313 C39.0471747,64.8560313 39.5048571,65.1043773 39.8577611,65.5997989 C40.2138792,66.0882337 40.3912954,66.7252951 40.3912954,67.5116181 L40.3912954,67.5116181 Z M34.933818,67.4360345 C34.933818,66.9876145 34.8438243,66.6198592 34.663194,66.3321336 C34.4825637,66.0418674 34.2517941,65.8957815 33.9715278,65.8957815 C33.635337,65.8957815 33.3550707,66.0717197 33.1294436,66.423596 C32.9038164,66.7754724 32.7913242,67.2080135 32.7913242,67.7218547 C32.7913242,68.1702747 32.8864605,68.5310432 33.076733,68.8041603 C33.2670054,69.084264 33.5125598,69.2239983 33.813396,69.2239983 C34.1290169,69.2239983 34.3951412,69.0518711 34.6104834,68.7076166 C34.8258255,68.3551051 34.933818,67.9314561 34.933818,67.4360345 L34.933818,67.4360345 Z M33.0317361,65.0237125 L32.9867392,65.5566083 C33.3447857,65.1183507 33.7221166,64.8998571 34.1180891,64.8998571 C34.5892706,64.8998571 34.9813861,65.1348648 35.2944358,65.6048801 C35.6081283,66.0755306 35.7643317,66.6700365 35.7643317,67.3877627 C35.7643317,68.1848833 35.584987,68.8562431 35.2269405,69.4024771 C34.8708224,69.9442651 34.4285675,70.2154766 33.9001757,70.2154766 C33.6295516,70.2154766 33.4077814,70.1538665 33.2348648,70.0325517 C33.0542345,69.9099667 32.8626764,69.6895676 32.6595477,69.3700842 L32.3477837,73 L31.5166272,73 L32.2012225,65.0237125 L33.0317361,65.0237125 Z M31.2048632,65.58392 L30.7349673,66.25655 C30.5151255,65.9732705 30.3107111,65.8309956 30.1223671,65.8309956 C29.9950902,65.8309956 29.8890262,65.8824432 29.8048178,65.9847033 C29.7212522,66.0869634 29.6788265,66.2133594 29.6788265,66.3645265 C29.6788265,66.5118827 29.7141812,66.6357381 29.7842478,66.7360927 C29.8543143,66.8402583 30.0008756,66.9799926 30.2245743,67.1559308 C30.5421236,67.4112634 30.7555373,67.6443656 30.862887,67.8565077 C30.9785932,68.0642037 31.0358035,68.3354152 31.0358035,68.6695072 C31.0358035,69.1509554 30.9194545,69.536495 30.6867564,69.8273964 C30.448273,70.115122 30.1390802,70.2580321 29.7578925,70.2580321 C29.2391428,70.2580321 28.8097441,69.9226698 28.4690536,69.25131 L29.0135157,68.7076166 C29.2365716,69.0912507 29.475055,69.283703 29.7283231,69.283703 C29.8710274,69.283703 29.9854481,69.2297147 30.0722277,69.1217382 C30.1583646,69.0143969 30.201433,68.8740274 30.201433,68.7019002 C30.201433,68.5513682 30.1654355,68.4287831 30.0921549,68.3354152 C30.057443,68.2890489 29.9963759,68.224263 29.9083106,68.1416927 C29.8208881,68.0591224 29.7019678,67.9606733 29.5515497,67.8450749 C29.2860681,67.633568 29.101581,67.4271423 28.998731,67.2264331 C28.895881,67.014291 28.8450988,66.7564177 28.8450988,66.4502726 C28.8450988,65.9910549 28.9627335,65.6105965 29.1980028,65.3088975 C29.433915,65.0071984 29.7328228,64.8560313 30.0960118,64.8560313 C30.4971267,64.8560313 30.8667439,65.0986609 31.2048632,65.58392 L31.2048632,65.58392 Z M27.0966491,67.0269941 C27.0092266,66.2444821 26.7071047,65.8532261 26.1909264,65.8532261 C25.7023889,65.8532261 25.3841968,66.2444821 25.2363499,67.0269941 L27.0966491,67.0269941 Z M25.1907103,67.9854443 C25.1907103,68.358916 25.2813468,68.6656963 25.4613343,68.9064204 C25.6445358,69.1471444 25.8778767,69.2678241 26.1607142,69.2678241 C26.5489729,69.2678241 26.8472378,69.0594929 27.0555091,68.6421955 L27.675823,69.133171 C27.4598381,69.5491981 27.2387106,69.8400995 27.0105122,70.00524 C26.7797425,70.1735563 26.4917626,70.2580321 26.1459295,70.2580321 C25.5969677,70.2580321 25.1598553,70.0268353 24.8339494,69.5631715 C24.5080435,69.1001429 24.3454119,68.4808659 24.3454119,67.7059758 C24.3454119,66.8936114 24.5241138,66.2152649 24.8828031,65.669666 C25.2389212,65.1272429 25.6882471,64.8560313 26.2320664,64.8560313 C26.7585297,64.8560313 27.1731437,65.1005663 27.4765512,65.5890012 C27.7844583,66.0806119 27.9387333,66.7399037 27.9387333,67.5656063 C27.9387333,67.6519875 27.9348765,67.7917218 27.9271627,67.9854443 L25.1907103,67.9854443 Z M21.4733261,62.9283332 L21.2483417,65.5997989 L21.6423857,65.5997989 C21.9335797,65.5997989 22.1502075,65.5604192 22.2929119,65.4816599 C22.4459012,65.4022654 22.5738209,65.2676123 22.6766709,65.0770656 C22.816804,64.8115704 22.8868706,64.4990737 22.8868706,64.1402107 C22.8868706,63.7197375 22.8026621,63.4129572 22.6329597,63.2192346 C22.4639,63.0255121 22.1977756,62.9283332 21.8345866,62.9283332 L21.4733261,62.9283332 Z M22.2929119,66.590642 L23.7514533,70.0967025 L22.8418737,70.0967025 L21.4662551,66.6770232 L21.1544911,66.6770232 L20.8607258,70.0967025 L20,70.0967025 L20.7141646,61.7812417 L21.8532282,61.7812417 C22.224131,61.7812417 22.518539,61.8301487 22.7364525,61.9266924 C22.9524374,62.0168846 23.1401386,62.1813899 23.3001989,62.422114 C23.6036064,62.8673583 23.7553101,63.4421744 23.7553101,64.1452919 C23.7553101,65.4340232 23.2680583,66.2495633 22.2929119,66.590642 L22.2929119,66.590642 Z" id="Fill-6" fill="#FF9300"></path></g></g></svg>
